<?xml version="1.0" encoding="utf-8"?>
<!-- Generator: Adobe Illustrator 25.0.1, SVG Export Plug-In . SVG Version: 6.00 Build 0)  -->
<svg version="1.1" id="레이어_1" xmlns="http://www.w3.org/2000/svg" xmlns:xlink="http://www.w3.org/1999/xlink" x="0px"
	 y="0px" viewBox="0 0 100 100" style="enable-background:new 0 0 100 100;" xml:space="preserve">
<style type="text/css">
	.st0{fill:#00FF00;}
</style>
<path class="st0" d="M50,10C22.4,10,0,24.6,0,42.5S22.4,75,50,75c4,0,7.8-0.3,11.5-0.9c-1.9,4.3-4.6,9.2-8.5,14.2
	c0,0,24.4-5.6,38.2-27.5c5.5-5.2,8.7-11.5,8.7-18.3C100,24.6,77.6,10,50,10z M32,52H17.4V34.5H23v14h9V52z M41.6,52H36V34.5h5.6V52z
	 M65.5,52h-5.7L54,43.6l-2.3-3.8h-0.2c0.3,2,0.7,4.4,0.7,6.5V52H47V34.5h5.7l5.8,8.4l2.3,3.9H61c-0.3-1.9-0.8-4.4-0.8-6.5v-5.8h5.3
	V52z M86,52H70.9V34.5h14.8V38h-9.2v3.2h7.8v3.5h-7.8v3.7H86V52z"/>
</svg>
