<?xml version="1.0" encoding="utf-8"?>
<!-- Generator: Adobe Illustrator 25.0.1, SVG Export Plug-In . SVG Version: 6.00 Build 0)  -->
<svg version="1.1" id="레이어_1" xmlns="http://www.w3.org/2000/svg" xmlns:xlink="http://www.w3.org/1999/xlink" x="0px"
	 y="0px" viewBox="0 0 100 100" style="enable-background:new 0 0 100 100;" xml:space="preserve">
<style type="text/css">
	.st0{fill:#FFFFFF;}
</style>
<g>
	<path class="st0" d="M40.5,40V20c0-5.5,4.5-10,10-10s10,4.5,10,10v20h10V20c0-11-9-20-20-20s-20,9-20,20v20H40.5z"/>
</g>
<g>
	<path class="st0" d="M13.4,44v56h73.2V44H13.4z M53.7,71.1V87h-8.5V71.1c-2.9-1.3-4.9-3.8-4.9-6.6c0-4.1,4.1-7.5,9.1-7.5
		s9.1,3.4,9.1,7.5C58.5,67.4,56.6,69.9,53.7,71.1z"/>
</g>
</svg>
