<?xml version="1.0" encoding="utf-8"?>
<!-- Generator: Adobe Illustrator 25.0.1, SVG Export Plug-In . SVG Version: 6.00 Build 0)  -->
<svg version="1.1" id="레이어_1" xmlns="http://www.w3.org/2000/svg" xmlns:xlink="http://www.w3.org/1999/xlink" x="0px"
	 y="0px" viewBox="0 0 100 100" style="enable-background:new 0 0 100 100;" xml:space="preserve">
<style type="text/css">
	.st0{fill:#FFFFFF;}
</style>
<g>
	<path class="st0" d="M100,44.6L50,0.2L0,44.6h11v48.8c0,3.8,3.1,6.9,7,6.9h16c3.8,0,7-3.1,7-6.9v-23c0-2.5,2.1-4.6,4.7-4.6h9.7
		c2.6,0,4.7,2.1,4.7,4.6v23c0,3.8,3.2,6.9,7,6.9h16c3.8,0,7-3.1,7-6.9V44.6H100z"/>
</g>
<g>
	<path class="st0" d="M89.8,30.9c0.1-0.5,0.2-0.9,0.2-1.4v-21c0-3-2.5-5.5-5.5-5.5h-3c-3,0-5.5,2.5-5.5,5.5v10.8L89.8,30.9z"/>
</g>
</svg>
