<?xml version="1.0" encoding="utf-8"?>
<!-- Generator: Adobe Illustrator 25.0.1, SVG Export Plug-In . SVG Version: 6.00 Build 0)  -->
<svg version="1.1" id="레이어_1" xmlns="http://www.w3.org/2000/svg" xmlns:xlink="http://www.w3.org/1999/xlink" x="0px"
	 y="0px" viewBox="0 0 100 100" style="enable-background:new 0 0 100 100;" xml:space="preserve">
<style type="text/css">
	.st0{fill:#0000FF;}
</style>
<g>
	<path class="st0" d="M50,0C22.4,0,0,22.4,0,50c0,23.1,15.7,42.6,37.1,48.3c0-11.6,0-56.9,0-59.4c0-2.9,2.2-6.7,7.6-6.7
		s36.4,0,36.4,0v13.7c0,0-24.4,0-26.7,0S50.6,48,50.6,50s0,11,0,11h26.5v13.8H50.6V100C78,99.6,100,77.4,100,50
		C100,22.4,77.6,0,50,0z"/>
</g>
</svg>
