<?xml version="1.0" encoding="utf-8"?>
<!-- Generator: Adobe Illustrator 25.0.1, SVG Export Plug-In . SVG Version: 6.00 Build 0)  -->
<svg version="1.1" id="레이어_1" xmlns="http://www.w3.org/2000/svg" xmlns:xlink="http://www.w3.org/1999/xlink" x="0px"
	 y="0px" viewBox="0 0 100 100" style="enable-background:new 0 0 100 100;" xml:space="preserve">
<style type="text/css">
	.st0{fill:#FFFFFF;}
</style>
<g>
	<path class="st0" d="M51.5,74.8c-1.5,0-3-1.1-3-3V61.5h-45c-1.7,0-3-1.4-3-3v-17c0-1.7,1.4-3,3-3h44.9V28.2c0-1.9,1.5-3,3-3
		c0.9,0,1.7,0.4,2.3,1.1l17.7,21.8c0.9,1.1,0.9,2.7,0,3.8L53.8,73.7C53.2,74.4,52.4,74.8,51.5,74.8L51.5,74.8z"/>
	<path class="st0" d="M51.5,25.7c0.7,0,1.4,0.3,1.9,0.9l17.7,21.8c0.7,0.9,0.7,2.2,0,3.2L53.4,73.3c-0.5,0.6-1.2,0.9-1.9,0.9
		c-1.2,0-2.5-0.9-2.5-2.5V62v-1h-1H3.5C2.1,61,1,59.9,1,58.5v-17C1,40.1,2.1,39,3.5,39H48h1v-1v-9.8C49,26.7,50.2,25.7,51.5,25.7
		 M51.5,24.7c-1.8,0-3.5,1.4-3.5,3.5V38H3.5C1.6,38,0,39.6,0,41.5v16.9c0,2,1.6,3.6,3.5,3.6H48v9.8c0,2.1,1.7,3.5,3.5,3.5
		c1,0,2-0.4,2.7-1.3l17.7-21.8c1-1.3,1-3.1,0-4.4L54.2,26C53.5,25.1,52.5,24.7,51.5,24.7L51.5,24.7z"/>
</g>
<g>
	<path class="st0" d="M57.5,99.5v-9H80c5.8,0,10.5-4.7,10.5-10.5V20c0-5.8-4.7-10.5-10.5-10.5H57.5v-9H80c10.8,0,19.5,8.7,19.5,19.5
		v60c0,10.8-8.7,19.5-19.5,19.5H57.5z"/>
	<path class="st0" d="M80,1c10.5,0,19,8.5,19,19v60c0,10.5-8.5,19-19,19H58v-8h22c6.1,0,11-4.9,11-11V20c0-6.1-4.9-11-11-11H58V1H80
		 M80,0H57v10h23c5.5,0,10,4.5,10,10v60c0,5.5-4.5,10-10,10H57v10h23c11,0,20-9,20-20V20C100,9,91,0,80,0L80,0z"/>
</g>
</svg>
