<?xml version="1.0" encoding="utf-8"?>
<!-- Generator: Adobe Illustrator 25.0.1, SVG Export Plug-In . SVG Version: 6.00 Build 0)  -->
<svg version="1.1" id="레이어_1" xmlns="http://www.w3.org/2000/svg" xmlns:xlink="http://www.w3.org/1999/xlink" x="0px"
	 y="0px" viewBox="0 0 100 100" style="enable-background:new 0 0 100 100;" xml:space="preserve">
<style type="text/css">
	.st0{fill:#FFFFFF;}
</style>
<g>
	<path class="st0" d="M88.2,54.3C88.7,53,89,51.5,89,50c0-6.4-5.1-11.5-11.5-11.5c-0.3,0-0.6,0-0.9,0c-1.8-8.6-9.4-15-18.6-15
		c-8.1,0-14.9,5-17.7,12.1c-2.3-1.3-5-2.1-7.8-2.1c-8.5,0-15.4,6.9-15.5,15.3c-4.2,2.7-7,7.3-7,12.7c0,8.2,6.8,15,15,15h50
		c8.2,0,15-6.8,15-15C90,58.9,89.3,56.5,88.2,54.3z"/>
</g>
</svg>
