<?xml version="1.0" encoding="utf-8"?>
<!-- Generator: Adobe Illustrator 25.0.1, SVG Export Plug-In . SVG Version: 6.00 Build 0)  -->
<svg version="1.1" id="레이어_1" xmlns="http://www.w3.org/2000/svg" xmlns:xlink="http://www.w3.org/1999/xlink" x="0px"
	 y="0px" viewBox="0 0 100 100" style="enable-background:new 0 0 100 100;" xml:space="preserve">
<style type="text/css">
	.st0{fill:#FFFFFF;}
</style>
<g>
	<path class="st0" d="M41.7,37.3L41.7,37.3c-0.6,1.8-1.1,3.8-1.6,5.6l-0.4,1.5h4.1l-0.4-1.5C42.8,41.1,42.3,39,41.7,37.3z"/>
	<path class="st0" d="M50,10C22.4,10,0,24.6,0,42.5C0,55,10.9,65.9,26.9,71.3l-4.4,18.2l17.4-15.2C43.2,74.8,46.6,75,50,75
		c27.6,0,50-14.6,50-32.5S77.6,10,50,10z M27.8,51.5H23V37.6h-5.5v-3.4h15.8v3.4h-5.5V51.5z M45.9,51.5l-1.2-4h-6l-1.2,4h-4.9
		l6.3-17.3h5.8L51,51.5H45.9z M65.8,51.5H53.1V34.2H58V48h7.8V51.5z M81.1,51.5l-4.7-7.1L74.1,47v4.5h-4.9V34.2h4.9V41h0.1l5.7-6.8
		h5.3l-6.1,6.9l7.2,10.4H81.1z"/>
</g>
</svg>
