<?xml version="1.0" encoding="utf-8"?>
<!-- Generator: Adobe Illustrator 25.0.1, SVG Export Plug-In . SVG Version: 6.00 Build 0)  -->
<svg version="1.1" id="레이어_1" xmlns="http://www.w3.org/2000/svg" xmlns:xlink="http://www.w3.org/1999/xlink" x="0px"
	 y="0px" viewBox="0 0 100 100" style="enable-background:new 0 0 100 100;" xml:space="preserve">
<style type="text/css">
	.st0{fill:#FFFFFF;}
</style>
<g>
	<path class="st0" d="M97.1,82.9L65.8,51.7C68.5,46.7,70,41,70,35C70,15.7,54.3,0,35,0S0,15.7,0,35s15.7,35,35,35
		c6,0,11.7-1.5,16.7-4.2L83,97.1c3.9,3.9,10.3,3.9,14.1,0l0,0C101,93.2,101,86.8,97.1,82.9z M10.5,35c0-13.5,11-24.5,24.5-24.5
		s24.5,11,24.5,24.5S48.5,59.5,35,59.5S10.5,48.5,10.5,35z"/>
</g>
</svg>
