<?xml version="1.0" encoding="utf-8"?>
<!-- Generator: Adobe Illustrator 25.0.1, SVG Export Plug-In . SVG Version: 6.00 Build 0)  -->
<svg version="1.1" id="레이어_1" xmlns="http://www.w3.org/2000/svg" xmlns:xlink="http://www.w3.org/1999/xlink" x="0px"
	 y="0px" viewBox="0 0 100 100" style="enable-background:new 0 0 100 100;" xml:space="preserve">
<style type="text/css">
	.st0{fill:#00FF00;}
</style>
<g>
	<path class="st0" d="M50,0C22.4,0,0,22.4,0,50s22.4,50,50,50s50-22.4,50-50S77.6,0,50,0z M82.5,73h-65V27h65V73z"/>
</g>
<g>
	<path class="st0" d="M22.5,32v36h55V32H22.5z M45,37c1.7,0,3,1.3,3,3s-1.3,3-3,3s-3-1.3-3-3S43.3,37,45,37z M52.3,64H40.9h-14
		l12.7-18l7,9.9l11.3-16.1L75,64H52.3z"/>
</g>
</svg>
