<?xml version="1.0" encoding="utf-8"?>
<!-- Generator: Adobe Illustrator 25.0.1, SVG Export Plug-In . SVG Version: 6.00 Build 0)  -->
<svg version="1.1" id="레이어_1" xmlns="http://www.w3.org/2000/svg" xmlns:xlink="http://www.w3.org/1999/xlink" x="0px"
	 y="0px" viewBox="0 0 200 100" style="enable-background:new 0 0 200 100;" xml:space="preserve">
<style type="text/css">
	.st0{fill:#FFFFFF;}
</style>
<path class="st0" d="M77.3,15.4l-7.6,30.9c-1.9,7.3-3.3,14.2-5.3,21.6H64c-1.9-7.4-3.3-14.3-5.3-21.6L58.1,44L51,15.4h-0.8H33.8
	l8.9,29.9l-0.2,1c-1.9,7.3-3.3,14.2-5.3,21.6h-0.5c-1.9-7.4-3.3-14.3-5.3-21.6l-7.7-30.9h-17L26.9,83h19.5l3.8-12.8L54.1,83h19.5
	l20.2-67.6C93.8,15.4,77.3,15.4,77.3,15.4z"/>
<path class="st0" d="M127,46.9v-0.4c6.9-2.9,10.6-7.7,10.6-14.2c0-11.4-9-17.9-22.7-17.9c-7.8,0-14.4,3.2-20.5,8.3l8,9.7
	c4-3.6,7.4-5.6,11.8-5.6c4.9,0,7.6,2.4,7.6,6.8c0,4.8-3.6,8.2-14.8,8.2V53c13.9,0,16.9,3.2,16.9,8.6c0,4.6-4,7.1-10.1,7.1
	c-5.2,0-9.8-2.7-13.8-6.4l-7.3,10c4.8,5.6,12.2,9.2,22.7,9.2c13.2,0,24.4-6.8,24.4-18.8C139.7,54.3,134.3,49,127,46.9z"/>
<path class="st0" d="M173.4,29.4c4.5,0,7.8,2,11,4.9l7.9-9.7c-0.8-0.8-1.6-1.6-2.6-2.3l-5.3,6.6c-3.2-2.9-6.5-4.9-11-4.9
	c-8.2,0-14.9,7.3-14.9,19.6c0,1,0,1.9,0.1,2.8C159.6,35.7,165.9,29.4,173.4,29.4z"/>
<path class="st0" d="M190.9,69.7c-5,4.5-11.1,6.8-18.2,6.8c-15.3,0-28.4-10.1-29.6-29.7c-0.1,0.9-0.1,1.8-0.1,2.7
	C143,71,156.6,82,172.7,82c8.2,0,15.3-3.1,20.6-9.3L190.9,69.7z"/>
</svg>
